<svg width="200" height="52" viewBox="0 0 200 52" fill="none" xmlns="http://www.w3.org/2000/svg">
<path d="M199.565 36.1914V37.9791C198.846 38.1584 198.126 38.3366 197.586 38.3366C195.968 38.3366 193.989 37.4433 193.989 35.2981V29.0395H191.291V27.2518H193.989V24.7479L196.147 24.2122V27.2518H199.386V29.0395H196.147V34.5819C196.147 35.8338 196.688 36.5489 198.126 36.5489C198.667 36.5489 199.026 36.5489 199.565 36.1914Z" fill="#5AB6EB"/>
<path d="M181.937 31.5424H188.052C188.052 31.1849 187.873 28.6821 184.995 28.6821C182.836 28.6821 182.116 30.2916 181.937 31.5424V31.5424ZM190.571 33.1519H181.758C182.116 35.834 184.455 36.3697 185.895 36.3697C186.614 36.3697 188.413 36.0122 189.672 35.2971V37.6206C188.413 37.9792 187.873 38.3367 185.715 38.3367C181.758 38.3367 179.419 36.1915 179.419 32.4357C179.419 28.6821 182.297 26.8933 185.175 26.8933C189.492 26.8933 190.571 30.1122 190.571 33.1519" fill="#5AB6EB"/>
<path d="M178.16 36.1914V37.9791C177.44 38.1584 176.721 38.3366 176.181 38.3366C174.563 38.3366 172.403 37.4433 172.403 35.2981V29.0395H169.885V27.2518H172.403V24.7479L174.742 24.2122V27.2518H177.98V29.0395H174.742V34.5819C174.742 35.8338 175.282 36.5489 176.721 36.5489C177.081 36.5489 177.621 36.5489 178.16 36.1914Z" fill="#5AB6EB"/>
<path d="M165.747 33.867V32.9736H164.488C162.51 32.9736 160.171 33.1519 160.171 34.9407C160.171 35.834 160.891 36.549 162.51 36.549C163.949 36.549 165.747 36.0122 165.747 33.867ZM168.086 37.9792H166.107V36.7273C165.028 37.801 163.768 38.3367 162.329 38.3367C160.171 38.3367 157.832 37.6217 157.832 34.9407C157.832 32.6161 160.35 31.3642 163.589 31.3642H165.747C165.747 29.7547 165.208 28.8603 162.87 28.8603C161.07 28.8603 160.171 29.3972 159.091 29.934V27.7888C160.531 27.0726 161.61 26.8933 163.229 26.8933C166.286 26.8933 168.086 27.967 168.086 31.5424V36.3697V37.9792" fill="#5AB6EB"/>
<path d="M157.113 27.0725V29.0395C156.753 28.8602 156.394 28.8602 155.854 28.8602C154.055 28.8602 152.616 29.9328 152.616 33.1507V37.9791H150.277V27.2507H152.436V28.8602C153.336 27.4301 154.595 26.8943 155.674 26.8943C156.214 26.8943 156.753 27.0725 157.113 27.0725" fill="#5AB6EB"/>
<path d="M145.6 32.6155C145.6 30.4703 144.521 28.6826 141.823 28.6826C138.944 28.6826 137.866 30.4703 137.866 32.6155C137.866 34.7608 138.944 36.5495 141.823 36.5495C144.521 36.5495 145.6 34.7608 145.6 32.6155V32.6155ZM147.939 32.6155C147.939 36.0127 145.6 38.3372 141.823 38.3372C138.045 38.3372 135.527 36.0127 135.527 32.6155C135.527 29.2183 138.045 26.8938 141.823 26.8938C145.6 26.8938 147.939 29.2183 147.939 32.6155Z" fill="#5AB6EB"/>
<path d="M134.448 36.1914V37.9791C133.728 38.1584 133.009 38.3366 132.469 38.3366C130.851 38.3366 128.872 37.4433 128.872 35.2981V29.0395H126.173V27.2518H128.872V24.7479L131.03 24.2122V27.2518H134.268V29.0395H131.03V34.5819C131.03 35.8338 131.57 36.5489 133.009 36.5489C133.549 36.5489 133.909 36.5489 134.448 36.1914" fill="#5AB6EB"/>
<path d="M126.173 37.9795H122.755L117.539 32.6153V37.9795H115.2V22.2456H117.539V31.5438L122.215 27.2522H125.454L119.697 32.0796" fill="#5AB6EB"/>
<path d="M104.048 31.5424H110.163C110.163 31.1849 109.984 28.6821 107.285 28.6821C105.127 28.6821 104.227 30.2916 104.048 31.5424ZM112.682 33.1519H104.048C104.408 35.834 106.566 36.3697 108.006 36.3697C108.905 36.3697 110.704 36.0122 111.782 35.2971V37.6206C110.524 37.9792 110.163 38.3367 107.825 38.3367C103.868 38.3367 101.53 36.1915 101.53 32.4357C101.53 28.6821 104.587 26.8933 107.285 26.8933C111.782 26.8933 112.682 30.1122 112.682 33.1519" fill="#5AB6EB"/>
<path d="M100.99 27.0725V29.0395C100.63 28.8602 100.27 28.8602 99.7303 28.8602C97.9317 28.8602 96.4929 29.9328 96.4929 33.1507V37.9791H94.1542V27.2507H96.3125V28.8602C97.2123 27.4301 98.4719 26.8943 99.551 26.8943C100.091 26.8943 100.63 27.0725 100.99 27.0725" fill="#5AB6EB"/>
<path d="M88.0383 25.1051H90.7367V22.6023H88.0383V25.1051Z" fill="#5AB6EB"/>
<path d="M88.2177 38.159H90.5564V27.2524H88.2177V38.159Z" fill="#5AB6EB"/>
<path d="M82.2821 32.6156C82.2821 30.4703 81.0225 28.6826 78.8642 28.6826C76.7059 28.6826 75.4464 30.1128 75.4464 32.4374C75.4464 34.7608 76.7059 36.5496 78.8642 36.5496C81.0225 36.5496 82.2821 34.7608 82.2821 32.6156V32.6156ZM84.6208 22.2458V37.9798H82.4614V36.5496C81.743 37.4429 80.3031 38.3373 78.3241 38.3373C74.9073 38.3373 73.1077 35.8334 73.1077 32.4374C73.1077 29.0402 75.266 26.8939 78.3241 26.8939C81.3833 26.8939 82.2821 28.6826 82.2821 28.6826V22.2458H84.6208V22.2458Z" fill="#5AB6EB"/>
<path d="M68.2507 25.1051H70.9491V22.6023H68.2507V25.1051Z" fill="#5AB6EB"/>
<path d="M70.5893 27.2517V38.3365C70.5893 41.913 69.1504 42.6281 66.9921 42.6281H65.7325V40.8404H66.6313C67.5311 40.8404 68.431 40.4818 68.431 38.6951V27.2517H70.5893V27.2517Z" fill="#5AB6EB"/>
<path d="M56.9179 31.5424H63.0331C63.0331 31.1849 62.8538 28.6821 60.1554 28.6821C57.9971 28.6821 57.2776 30.2916 56.9179 31.5424ZM65.5522 33.1519H56.9179C57.2776 35.834 59.4359 36.3697 60.8759 36.3697C61.7746 36.3697 63.5743 36.0122 64.6524 35.2971V37.6206C63.5743 37.9792 63.0331 38.3367 60.8759 38.3367C56.7386 38.3367 54.3999 36.1915 54.3999 32.4357C54.3999 28.6821 57.457 26.8933 60.1554 26.8933C64.6524 26.8933 65.5522 30.1122 65.5522 33.1519" fill="#5AB6EB"/>
<path d="M55.1195 23.3186L48.6435 37.9799H45.5854L39.2898 23.3186H41.9882L47.2046 36.0129H47.385L52.6015 23.3186H55.1195Z" fill="#5AB6EB"/>
<path d="M25.7985 27.6094L25.6192 27.4312H7.98983V27.6094L16.8045 42.8065H16.9838L25.7985 27.6094ZM33.1732 23.3179V23.4972L16.9838 51.5678H16.8045L0.434692 23.4972V23.3179H33.1732Z" fill="#5AB6EB"/>
<path d="M10.3288 15.0934V14.7359C9.9691 14.9152 9.43007 15.0934 9.06926 15.0934C8.88995 14.9152 8.53023 14.5577 8.34983 14.0208C8.17052 13.3057 8.34983 12.5906 8.70955 12.4113C9.24966 12.2331 9.60938 12.5906 9.78978 12.7689C9.78978 12.2331 8.88995 11.518 8.53023 11.1605H8.34983V10.9812C8.53023 10.8019 8.70955 10.8019 8.70955 10.6236C8.53023 10.2661 8.34983 9.72924 8.17052 9.19347C7.45108 8.83593 5.83182 8.65662 4.93198 9.37278C4.39295 9.72924 4.21363 10.2661 4.21363 10.8019C4.21363 11.3387 4.39295 11.8756 4.75267 12.5906C5.11238 12.5906 5.2917 12.7689 5.4721 12.7689C5.65141 13.1264 5.83182 13.8426 6.01113 14.2001C6.01113 13.6633 6.19153 13.3057 6.55125 13.1264C6.91097 13.1264 7.45108 13.6633 7.45108 14.3805C7.6304 14.7359 7.6304 15.2716 7.45108 15.451C7.45108 15.451 7.09137 15.9867 6.73165 15.6292C6.91096 15.9867 7.45108 16.3454 7.8108 16.3454C8.17052 16.3454 8.53023 16.3453 9.06926 16.1671H9.78978C9.9691 15.9867 9.9691 15.9867 10.1495 15.8085C10.3288 15.6292 10.3288 15.451 10.3288 15.0934ZM16.2647 9.55101V9.01524C15.3659 8.83593 14.4661 8.47731 13.5663 8.12085C12.4871 7.76331 11.408 7.22646 10.5081 7.584C9.78978 7.94154 9.43007 8.65662 9.43007 9.37278C9.43007 9.72924 9.60938 10.0868 9.60938 10.4443C9.9691 10.4443 10.3288 10.4443 10.5081 10.6236C10.8678 10.8019 10.8678 11.1605 10.8678 12.0538V12.4113C11.2276 12.2331 11.5873 11.6963 12.1274 11.6963C12.4871 11.8756 12.6675 12.4113 12.8468 12.9482C12.8468 13.6633 12.6675 14.3805 12.3078 14.5577H11.2276C11.408 14.9152 11.9481 15.6292 12.4871 15.6292L13.7467 15.451H15.0062C15.905 15.2716 16.2647 14.0208 16.2647 13.6633C16.2647 13.8426 15.7256 14.2001 15.3659 14.3805C15.1855 14.3805 15.0062 14.3805 14.8258 14.2001C14.4661 14.0208 14.2868 13.6633 14.1064 13.1264C13.926 12.5906 13.926 12.0538 14.1064 11.6963C14.2868 11.518 14.2868 11.518 14.4661 11.3387H14.8258C15.0062 11.3387 15.3659 11.518 15.905 11.8756C15.905 11.8756 16.0843 11.8756 15.905 11.6963L15.7256 11.3387C15.5452 11.1605 15.3659 10.9812 15.3659 10.8019C15.1855 10.4443 15.1855 10.0868 15.3659 9.90963C15.5452 9.72924 15.905 9.55101 16.2647 9.55101V9.55101ZM23.9991 10.4443C24.1806 10.0868 24.1806 9.72924 24.1806 9.37278C24.1806 8.65662 23.8198 7.94154 23.1004 7.584C22.2016 7.22646 21.1214 7.76331 20.0422 8.12085C19.1435 8.47731 18.2437 8.83593 17.3449 9.01524V9.55101C17.7035 9.55101 18.0633 9.72924 18.2437 9.90963C18.423 10.0868 18.423 10.4443 18.2437 10.8019C18.2437 10.9812 18.0633 11.1605 17.8839 11.3387L17.7035 11.6963V11.8756C18.2437 11.518 18.6034 11.3387 18.9631 11.3387H19.1435C19.3228 11.518 19.5032 11.518 19.5032 11.6963C19.6825 12.0538 19.6825 12.5906 19.5032 13.1264C19.3228 13.6633 19.1435 14.0208 18.7827 14.2001C18.6034 14.3805 18.423 14.3805 18.2437 14.3805C17.8839 14.2001 17.5242 13.8426 17.5242 13.6633H17.3449C17.5242 14.0208 17.7035 15.2716 18.6034 15.451H19.8629L21.1214 15.6292C21.8419 15.6292 22.2016 14.9152 22.3809 14.5577H21.4811C21.1214 14.3805 20.7617 13.6633 20.9421 12.9482C20.9421 12.4113 21.3018 11.8756 21.6615 11.6963C22.0212 11.6963 22.5614 12.2331 22.7407 12.4113V12.0538C22.7407 11.1605 22.9211 10.8019 23.1004 10.6236C23.2797 10.4443 23.6394 10.4443 23.9991 10.4443V10.4443ZM28.8569 12.5906C29.2166 11.8756 29.397 11.3387 29.397 10.8019C29.397 10.2661 29.2166 9.72924 28.8569 9.37278C27.7778 8.65662 26.1585 8.83593 25.4391 9.19347C25.4391 9.72924 25.2587 10.2661 24.899 10.6236C25.0794 10.8019 25.2587 10.8019 25.2587 10.9812V11.1605C24.899 11.518 23.9991 12.2331 23.8198 12.7689C23.9991 12.5906 24.3599 12.2331 24.899 12.4113C25.2587 12.5906 25.4391 13.3057 25.2587 14.0208C25.0794 14.5577 24.7196 14.9152 24.5392 15.0934C24.1806 15.0934 23.6394 14.9152 23.4601 14.7359C23.4601 14.7359 23.2797 14.9152 23.2797 15.0934C23.2797 15.451 23.4601 15.6292 23.4601 15.8085C23.6394 15.9867 23.8198 15.9867 23.9991 16.1671H24.7196C25.0794 16.3453 25.4391 16.3454 25.7988 16.3454C26.3378 16.3454 26.8779 15.9867 26.8779 15.6292C26.5182 15.9867 26.3378 15.451 26.3378 15.451C26.1585 15.2716 25.9781 14.7359 26.1585 14.3805C26.3378 13.6633 26.6986 13.1264 27.0584 13.1264C27.4181 13.3057 27.5974 13.6633 27.5974 14.2001C27.7778 13.8426 27.9571 13.1264 28.1375 12.7689C28.3168 12.7689 28.6765 12.5906 28.8569 12.5906V12.5906ZM30.8348 14.2001H31.0152H30.8348C30.8348 14.2001 28.6765 14.5577 28.3168 15.0934C28.3168 15.0934 27.4181 15.9867 27.4181 16.8811V17.0604C27.4181 17.0604 27.2377 17.2387 26.8779 17.418H26.5182V17.5962L26.3378 20.9934H7.27068L7.09137 17.5962V17.418H6.73165C6.37085 17.2387 6.19153 17.0604 6.19153 17.0604V16.8811C6.19153 15.9867 5.4721 15.0934 5.4721 15.0934C4.93198 14.5577 2.77368 14.2001 2.77368 14.2001C2.77368 13.484 3.1334 12.9482 3.85283 12.7689C3.31271 12.0538 2.95408 11.1605 2.95408 10.4443V10.0868C2.95408 9.37278 3.31271 8.83593 4.03215 8.29908C5.4721 7.40578 7.27068 7.76331 8.17052 8.12085C8.34983 7.584 8.70955 6.33316 10.5081 6.15385C11.9481 5.97454 12.8468 6.6907 13.926 7.22647C14.6465 7.58401 15.3659 7.94154 16.2647 8.12085V7.584C15.3659 7.22646 14.8258 6.51139 14.8258 5.617C14.8258 4.72369 15.5452 3.8293 16.2647 3.64999V2.93491H15.905C15.7256 3.11422 15.5452 3.29245 15.3659 3.29245C15.0062 3.29245 14.6465 2.93491 14.6465 2.57845C14.6465 2.22091 15.0062 1.86337 15.3659 1.86337C15.5452 1.86337 15.7256 2.0416 15.905 2.22091H16.444V1.68406C16.2647 1.50583 16.0843 1.32544 16.0843 1.14721C16.0843 0.789669 16.444 0.432129 16.8048 0.432129C17.1645 0.432129 17.5242 0.789669 17.5242 1.14721C17.5242 1.32544 17.5242 1.50583 17.3449 1.68406V2.22091H17.7035C17.8839 2.0416 18.0633 1.86337 18.2437 1.86337C18.7827 1.86337 18.9631 2.22091 18.9631 2.57845C18.9631 2.93491 18.7827 3.29245 18.2437 3.29245C18.0633 3.29245 17.8839 3.11422 17.7035 2.93491H17.3449V3.64999C18.2437 3.8293 18.7827 4.72369 18.7827 5.617C18.7827 6.51139 18.2437 7.22646 17.3449 7.584V8.12085C18.2437 7.94154 18.9631 7.58401 19.6825 7.22647C20.7617 6.6907 21.8419 5.97454 23.2797 6.15385C24.899 6.33316 25.4391 7.584 25.4391 8.12085C26.5182 7.76331 28.3168 7.40578 29.5764 8.29908C30.2958 8.83593 30.6555 9.37278 30.6555 10.0868L30.8348 10.4443C30.8348 11.1605 30.4751 12.0538 29.9361 12.7689C30.4751 12.9482 30.8348 13.484 30.8348 14.2001Z" fill="#5AB6EB"/>
</svg>
